<svg width="32" height="33" viewBox="0 0 32 33" fill="none" xmlns="http://www.w3.org/2000/svg">
<path d="M29.75 25.5234C29.75 26.2072 29.4866 26.863 29.0178 27.3464C28.5489 27.8299 27.913 28.1016 27.25 28.1016H4.75C4.08696 28.1016 3.45107 27.8299 2.98223 27.3464C2.51339 26.863 2.25 26.2072 2.25 25.5234V11.3438C2.25 10.66 2.51339 10.0042 2.98223 9.52074C3.45107 9.03725 4.08696 8.76562 4.75 8.76562H9.75L12.25 4.89844H19.75L22.25 8.76562H27.25C27.913 8.76562 28.5489 9.03725 29.0178 9.52074C29.4866 10.0042 29.75 10.66 29.75 11.3438V25.5234Z" stroke="#87C25C" stroke-width="2" stroke-linecap="round" stroke-linejoin="round"/>
<path d="M11 17.7891C11 19.1566 11.5268 20.4681 12.4645 21.4351C13.4021 22.4021 14.6739 22.9453 16 22.9453C17.3261 22.9453 18.5979 22.4021 19.5355 21.4351C20.4732 20.4681 21 19.1566 21 17.7891C21 16.4215 20.4732 15.11 19.5355 14.143C18.5979 13.1761 17.3261 12.6328 16 12.6328C14.6739 12.6328 13.4021 13.1761 12.4645 14.143C11.5268 15.11 11 16.4215 11 17.7891Z" stroke="#87C25C" stroke-width="2" stroke-linecap="round" stroke-linejoin="round"/>
</svg>
