<svg width="32" height="33" viewBox="0 0 32 33" fill="none" xmlns="http://www.w3.org/2000/svg">
<path d="M26.5136 16.6157L15.275 28.0601C13.8982 29.4623 12.0309 30.2499 10.0837 30.2499C8.13673 30.2499 6.26926 29.4623 4.89246 28.0601C3.51566 26.6581 2.74219 24.7566 2.74219 22.7738C2.74219 20.791 3.51566 18.8895 4.89246 17.4874L16.131 6.0431C17.0489 5.10831 18.2939 4.58325 19.5919 4.58325C20.8901 4.58325 22.1349 5.10842 23.0528 6.0431C23.9706 6.97778 24.4864 8.2454 24.4864 9.56723C24.4864 10.8892 23.9706 12.1568 23.0528 13.0915L11.802 24.5359C11.3431 25.0032 10.7205 25.2658 10.0716 25.2658C9.42248 25.2658 8.80007 25.0032 8.34113 24.5359C7.8822 24.0686 7.62434 23.4349 7.62434 22.7738C7.62434 22.1129 7.8822 21.479 8.34113 21.0117L18.7236 10.4515" stroke="#87C25C" stroke-width="2" stroke-linecap="round" stroke-linejoin="round"/>
</svg>
