<svg width="25" height="25" viewBox="0 0 25 25" fill="none" xmlns="http://www.w3.org/2000/svg">
<path d="M9.79481 17.4088C7.80739 17.4088 6.1243 16.7197 4.74556 15.3415C3.36701 13.9632 2.67773 12.2806 2.67773 10.2937C2.67773 8.3068 3.36701 6.62418 4.74556 5.24581C6.1243 3.86764 7.80739 3.17856 9.79481 3.17856C11.7822 3.17856 13.4653 3.86764 14.8441 5.24581C16.2226 6.62418 16.9119 8.3068 16.9119 10.2937C16.9119 11.1246 16.7724 11.9182 16.4935 12.6745C16.2144 13.4308 15.842 14.0885 15.3765 14.6478L22.0732 21.3426C22.2343 21.5036 22.3168 21.706 22.3205 21.9499C22.3242 22.1939 22.2417 22.4001 22.0732 22.5686C21.9046 22.7372 21.7002 22.8214 21.4598 22.8214C21.2197 22.8214 21.0153 22.7372 20.8468 22.5686L14.1501 15.8738C13.5682 16.3542 12.899 16.7301 12.1425 17.0016C11.3861 17.2731 10.6035 17.4088 9.79481 17.4088ZM9.79481 15.6638C11.2944 15.6638 12.5645 15.1435 13.6052 14.103C14.646 13.0626 15.1664 11.7929 15.1664 10.2937C15.1664 8.7945 14.646 7.52473 13.6052 6.48436C12.5645 5.4438 11.2944 4.92352 9.79481 4.92352C8.29522 4.92352 7.0251 5.4438 5.98445 6.48436C4.9436 7.52473 4.42318 8.7945 4.42318 10.2937C4.42318 11.7929 4.9436 13.0626 5.98445 14.103C7.0251 15.1435 8.29522 15.6638 9.79481 15.6638Z" fill="url(#paint0_linear_1860_3264)"/>
<defs>
<linearGradient id="paint0_linear_1860_3264" x1="2.67773" y1="13" x2="22.3206" y2="13" gradientUnits="userSpaceOnUse">
<stop stop-color="#87C25C"/>
<stop offset="1" stop-color="#5FC077"/>
</linearGradient>
</defs>
</svg>
