<svg width="60" height="57" viewBox="0 0 60 57" fill="none" xmlns="http://www.w3.org/2000/svg">
<path fill-rule="evenodd" clip-rule="evenodd" d="M29.7079 0C35.666 0 40.496 4.79098 40.496 10.7009C40.496 16.6109 35.666 21.4018 29.7079 21.4018C23.7497 21.4018 18.9198 16.6109 18.9198 10.7009C18.9198 4.79098 23.7497 0 29.7079 0ZM11.6851 54.9555C6.86491 51.4818 5.79636 44.7897 9.29846 40.0084C12.8005 35.2271 19.547 34.1673 24.3673 37.6411C29.1875 41.1148 30.256 47.8069 26.7541 52.5882C23.2519 57.3695 16.5053 58.4293 11.6851 54.9555ZM50.1522 40.0084C53.6544 44.7897 52.5859 51.4818 47.7657 54.9555C42.9454 58.4293 36.1988 57.3695 32.6969 52.5882C29.1947 47.8069 30.2632 41.1148 35.0834 37.6411C39.9037 34.1673 46.6503 35.2271 50.1522 40.0084ZM0.530921 20.9749C2.37208 15.3543 8.45821 12.2783 14.1247 14.1045C19.7912 15.9308 22.8923 21.9679 21.0511 27.5885C19.21 33.2092 13.1238 36.2852 7.4573 34.4589C1.7908 32.6326 -1.31023 26.5958 0.530921 20.9749ZM45.2837 14.1045C50.9504 12.2783 57.0364 15.3543 58.8775 20.9749C60.7187 26.5958 57.6176 32.6326 51.9512 34.4589C46.2846 36.2852 40.1986 33.2092 38.3574 27.5885C36.5163 21.9679 39.6173 15.9308 45.2837 14.1045Z" fill="#EAAAB9"/>
</svg>
