<svg width="57" height="57" viewBox="0 0 57 57" fill="none" xmlns="http://www.w3.org/2000/svg">
<path d="M28.1374 0C31.4305 0.000129523 34.2717 1.98065 35.5554 4.81934C38.3881 2.608 42.4478 2.4309 45.4587 4.63965C48.578 6.92812 49.5675 11.0453 48.0593 14.4639C51.4309 14.5354 54.547 16.7232 55.6472 20.127C56.6437 23.2102 55.7173 26.4679 53.5388 28.5801C55.7624 30.6867 56.6924 33.9715 55.6433 37.0742C54.4813 40.5168 51.2354 42.7021 47.7819 42.6885C49.3299 46.1565 48.3124 50.369 45.1394 52.6875C42.0871 54.9204 37.9933 54.7039 35.196 52.4082C34.5896 53.6242 33.6934 54.6739 32.5944 55.46C31.2324 56.4341 29.5663 57.0056 27.7761 57C24.6865 56.9906 22.0084 55.2622 20.6442 52.7275C19.2508 53.7238 17.5889 54.2461 15.9099 54.2461C14.2475 54.2461 12.5729 53.7377 11.1306 52.6836C7.91309 50.3326 6.91079 46.0317 8.55537 42.5361C4.93305 42.7281 1.50343 40.4824 0.372754 36.8799C-0.594876 33.797 0.380957 30.5469 2.61006 28.4541C0.519462 26.341 -0.354371 23.1508 0.622754 20.124C1.75713 16.6105 5.03889 14.3904 8.53291 14.458C7.01738 11.0004 8.0887 6.81271 11.3005 4.51562C14.2411 2.41267 18.0998 2.52218 20.8649 4.51172C22.2102 1.83764 24.9648 0 28.1374 0Z" fill="#E49E5C"/>
</svg>
