<svg width="57" height="57" viewBox="0 0 57 57" fill="none" xmlns="http://www.w3.org/2000/svg">
<path d="M26.3077 54.8077L26.3043 39.536L20.4578 53.6447C19.9943 54.763 18.7117 55.2941 17.5933 54.8308C16.4749 54.3675 15.9441 53.0848 16.4072 51.9663L22.2476 37.8558L11.448 48.653C10.5918 49.5088 9.20307 49.5081 8.34704 48.6521C7.49141 47.796 7.49131 46.4081 8.34704 45.552L19.1433 34.7515L5.0346 40.5928C3.91608 41.0559 2.6325 40.5251 2.16919 39.4067C1.70592 38.2883 2.237 37.0057 3.35526 36.5422L17.4631 30.6949L2.19231 30.6923C0.981696 30.6921 0 29.7106 0 28.5C0 27.365 0.862526 26.4312 1.96794 26.3188L2.19231 26.3077L17.4631 26.3043L3.35526 20.4578C2.23699 19.9943 1.70592 18.7117 2.16919 17.5933C2.60357 16.5447 3.75796 16.0126 4.82222 16.3318L5.03374 16.4072L19.1433 22.2476L8.34704 11.448C7.49117 10.5918 7.49101 9.20307 8.34704 8.34704C9.20307 7.49101 10.5918 7.49117 11.448 8.34704L22.2476 19.1433L16.4072 5.03374C15.9441 3.91522 16.4749 2.6325 17.5933 2.16919C18.7117 1.70592 19.9943 2.23699 20.4578 3.35526L26.3043 17.4631L26.3077 2.19231C26.3079 0.981695 27.2894 0 28.5 0C29.7106 0 30.6921 0.981696 30.6923 2.19231L30.6949 17.4631L36.5422 3.35526C37.0057 2.237 38.2883 1.70592 39.4067 2.16919C40.5251 2.6325 41.0559 3.91522 40.5928 5.03374L34.7515 19.1433L45.552 8.34704C46.4081 7.49131 47.796 7.49141 48.6521 8.34704C49.5081 9.20307 49.5088 10.5918 48.653 11.448L37.8558 22.2476L51.9663 16.4072C53.0848 15.9441 54.3675 16.4749 54.8308 17.5933C55.2941 18.7117 54.763 19.9943 53.6447 20.4578L39.536 26.3043L54.8077 26.3077L55.0321 26.3188C56.1375 26.4312 57 27.365 57 28.5C57 29.7106 56.0183 30.6921 54.8077 30.6923L39.536 30.6949L53.6447 36.5422C54.763 37.0057 55.2941 38.2883 54.8308 39.4067C54.3675 40.5251 53.0848 41.0559 51.9663 40.5928L51.9654 40.5919L37.8558 34.7515L48.653 45.552C49.5088 46.4082 49.5081 47.7961 48.6521 48.6521C47.7961 49.5081 46.4082 49.5088 45.552 48.653L34.7515 37.8558L40.5928 51.9663C41.0559 53.0848 40.5251 54.3675 39.4067 54.8308C38.2883 55.2941 37.0057 54.763 36.5422 53.6447L30.6949 39.536L30.6923 54.8077L30.6812 55.0321C30.5688 56.1375 29.635 57 28.5 57C27.365 57 26.4312 56.1375 26.3188 55.0321L26.3077 54.8077Z" fill="#DDDAC2"/>
</svg>
