<svg width="18" height="18" viewBox="0 0 18 18" fill="none" xmlns="http://www.w3.org/2000/svg">
<g clip-path="url(#clip0_2157_2621)">
<mask id="mask0_2157_2621" style="mask-type:luminance" maskUnits="userSpaceOnUse" x="0" y="0" width="19" height="18">
<path d="M0 0H18.7826V17.9996H0V0Z" fill="white"/>
</mask>
<g mask="url(#mask0_2157_2621)">
<path d="M10.1045 13.1648L6.4772 3.55901C6.42971 3.43312 6.34459 3.32463 6.23335 3.24805C6.12208 3.17146 5.98989 3.13043 5.85453 3.13043C5.71915 3.13043 5.58699 3.17146 5.47572 3.24805C5.36448 3.32463 5.27936 3.43312 5.23187 3.55901L1.60461 13.1648C1.54462 13.3284 1.55209 13.5089 1.6254 13.667C1.69871 13.8252 1.83193 13.9482 1.99608 14.0092C2.16024 14.0703 2.34204 14.0646 2.50194 13.9932C2.66185 13.9219 2.78692 13.7908 2.84996 13.6283L3.94297 10.7339C3.94727 10.7225 3.95499 10.7127 3.96509 10.7057C3.97519 10.6987 3.98719 10.6949 3.99949 10.6949H7.70958C7.72186 10.6949 7.73386 10.6987 7.74395 10.7057C7.75407 10.7127 7.76178 10.7225 7.7661 10.7339L8.85909 13.6283C8.92213 13.7908 9.04719 13.9219 9.20712 13.9932C9.36701 14.0646 9.54882 14.0703 9.71294 14.0092C9.87712 13.9482 10.0103 13.8252 10.0837 13.667C10.157 13.5089 10.1644 13.3284 10.1045 13.1648ZM4.48706 9.29248L5.79801 5.82089C5.80237 5.80949 5.8101 5.79969 5.8202 5.79277C5.83029 5.78586 5.84225 5.78214 5.85453 5.78214C5.86682 5.78214 5.87878 5.78586 5.88887 5.79277C5.89896 5.79969 5.9067 5.80949 5.91106 5.82089L7.22201 9.29309C7.22542 9.30218 7.22655 9.31195 7.22536 9.32152C7.22413 9.33116 7.22062 9.34032 7.21504 9.34829C7.20953 9.35623 7.20208 9.36276 7.19347 9.36724C7.18483 9.37176 7.17522 9.37413 7.16549 9.37413H4.54358C4.53381 9.37413 4.52421 9.37176 4.5156 9.36724C4.50696 9.36276 4.49954 9.35623 4.49399 9.34829C4.48842 9.34032 4.48493 9.33116 4.48371 9.32152C4.4825 9.31195 4.48365 9.30218 4.48706 9.29309V9.29248Z" fill="#A4A4A4"/>
<path d="M13.374 6.01205C12.1129 6.00305 10.9837 6.72859 10.5025 7.85517C10.4335 8.01636 10.4319 8.19817 10.4979 8.3606C10.564 8.52301 10.6922 8.65272 10.8546 8.72118C11.0169 8.78967 11.2 8.79127 11.3636 8.72569C11.5271 8.66012 11.6577 8.53268 11.7267 8.37149C11.9951 7.74438 12.6265 7.33767 13.3384 7.33286C14.3153 7.32624 15.1039 8.12833 15.1039 9.09943C15.1039 9.11109 15.0994 9.12232 15.0912 9.13071C15.083 9.13914 15.0719 9.14407 15.0601 9.14445C14.3975 9.16277 13.6116 9.20657 12.9103 9.28854C11.2554 9.48184 10.2676 10.3779 10.2676 11.6855C10.2676 12.3816 10.5324 13.0063 11.0133 13.447C11.4646 13.8597 12.0812 14.0869 12.7462 14.0869C13.6832 14.0869 14.49 13.8468 15.1021 13.3899H15.1039C15.1035 13.4766 15.1203 13.5626 15.1534 13.6429C15.1865 13.7231 15.2352 13.7961 15.2966 13.8577C15.3581 13.9193 15.4312 13.9683 15.5118 14.0018C15.5923 14.0354 15.6787 14.0528 15.766 14.0532C15.8533 14.0535 15.9399 14.0369 16.0207 14.004C16.1015 13.9711 16.1751 13.9228 16.2371 13.8617C16.2991 13.8007 16.3484 13.7281 16.3822 13.6481C16.4159 13.5682 16.4335 13.4823 16.4339 13.3956V9.10302C16.4339 7.4166 15.0737 6.02434 13.374 6.01205ZM12.7462 12.7662C12.2163 12.7662 11.5976 12.4831 11.5976 11.6855C11.5976 11.3652 11.7133 11.141 11.9733 10.9582C12.2263 10.7802 12.6141 10.6532 13.0657 10.6003C13.7041 10.5256 14.4205 10.4844 15.0347 10.4661C15.0429 10.4661 15.051 10.4678 15.0585 10.471C15.0661 10.4742 15.0729 10.4789 15.0786 10.4848C15.0842 10.4907 15.0886 10.4976 15.0914 10.5053C15.0943 10.5129 15.0955 10.521 15.0951 10.5292C15.0132 12.0337 14.2412 12.7662 12.7462 12.7662Z" fill="#A4A4A4"/>
</g>
</g>
<defs>
<clipPath id="clip0_2157_2621">
<rect width="18" height="18" fill="white"/>
</clipPath>
</defs>
</svg>
