<svg width="57" height="57" viewBox="0 0 57 57" fill="none" xmlns="http://www.w3.org/2000/svg">
<path d="M14.25 0C6.37995 0 0 6.37995 0 14.25C0 22.1202 6.37995 28.5 14.25 28.5C6.37995 28.5 0 34.8798 0 42.75C0 50.6202 6.37995 57 14.25 57C22.1202 57 28.5 50.6202 28.5 42.75C28.5 50.6202 34.8798 57 42.75 57C50.6202 57 57 50.6202 57 42.75C57 34.8798 50.6202 28.5 42.75 28.5C50.6202 28.5 57 22.1202 57 14.25C57 6.37995 50.6202 0 42.75 0C34.8798 0 28.5 6.37995 28.5 14.25C28.5 6.37995 22.1202 0 14.25 0Z" fill="#F3DD85"/>
</svg>
