<svg width="57" height="57" viewBox="0 0 57 57" fill="none" xmlns="http://www.w3.org/2000/svg">
<path fill-rule="evenodd" clip-rule="evenodd" d="M56.9979 28.4979C56.9979 28.4979 57.3359 15.4021 49.4668 7.53313C41.5979 -0.335743 28.5021 0.00211288 28.5021 0.00211288C28.5021 0.00211288 28.5003 0.0695632 28.5 0.197655C28.5 0.143558 28.4995 0.10028 28.4992 0.0683227C28.4987 0.0246227 28.4979 0.00211288 28.4979 0.00211288C28.4979 0.00211288 15.4021 -0.335743 7.53313 7.53313C-0.335743 15.4021 0.00211288 28.4979 0.00211288 28.4979C0.00211288 28.4979 13.098 28.8357 20.9668 20.9668C28.1593 13.7745 28.4955 2.21538 28.5 0.280885C28.5047 2.21538 28.8409 13.7745 36.0332 20.9668C43.9021 28.8357 56.9979 28.4979 56.9979 28.4979ZM7.53313 49.4668C-0.335743 41.5979 0.00211288 28.5021 0.00211288 28.5021C0.00211288 28.5021 13.098 28.1643 20.9668 36.0332C28.1593 43.2255 28.4955 54.7846 28.5 56.7192C28.5047 54.7846 28.8409 43.2255 36.0332 36.0332C43.9021 28.1643 56.9979 28.5021 56.9979 28.5021C56.9979 28.5021 57.3359 41.5979 49.4668 49.4668C41.5979 57.3357 28.5021 56.9979 28.5021 56.9979C28.5021 56.9979 28.5003 56.9303 28.5 56.8023C28.4997 56.9303 28.4979 56.9979 28.4979 56.9979C28.4979 56.9979 15.4021 57.3357 7.53313 49.4668Z" fill="#DA7C7C"/>
</svg>
