<svg width="18" height="18" viewBox="0 0 18 18" fill="none" xmlns="http://www.w3.org/2000/svg">
<path fill-rule="evenodd" clip-rule="evenodd" d="M18 3.02765C18 4.52866 16.9077 5.77452 15.4746 6.01383C16.9077 6.25313 18 7.49903 18 9C18 10.501 16.9077 11.7469 15.4746 11.9862C16.9077 12.2255 18 13.4714 18 14.9724C18 16.6444 16.6444 18 14.9724 18C13.4714 18 12.2255 16.9077 11.9862 15.4746C11.7469 16.9077 10.501 18 9 18C7.49903 18 6.25313 16.9077 6.01383 15.4746C5.77452 16.9077 4.52866 18 3.02765 18C1.35552 18 0 16.6444 0 14.9724C0 13.4714 1.09229 12.2255 2.52535 11.9862C1.09229 11.7469 0 10.501 0 9C0 7.49903 1.09229 6.25313 2.52535 6.01383C1.09229 5.77452 0 4.52866 0 3.02765C0 1.35552 1.35552 0 3.02765 0C4.52866 0 5.77452 1.09229 6.01383 2.52535C6.25313 1.09229 7.49903 0 9 0C10.501 0 11.7469 1.09229 11.9862 2.52535C12.2255 1.09229 13.4714 0 14.9724 0C16.6444 0 18 1.35552 18 3.02765ZM6.01383 3.52995C5.80181 4.79965 4.79965 5.80181 3.52995 6.01383C4.79965 6.22584 5.80181 7.22804 6.01383 8.49774C6.22584 7.22804 7.22804 6.22584 8.49774 6.01383C7.22804 5.80181 6.22584 4.79965 6.01383 3.52995ZM9.50226 6.01383C10.772 5.80181 11.7742 4.79965 11.9862 3.52995C12.1982 4.79965 13.2004 5.80181 14.4701 6.01383C13.2004 6.22584 12.1982 7.22804 11.9862 8.49774C11.7742 7.22804 10.772 6.22584 9.50226 6.01383ZM11.9862 14.4701C12.1982 13.2004 13.2004 12.1982 14.4701 11.9862C13.2004 11.7742 12.1982 10.772 11.9862 9.50226C11.7742 10.772 10.772 11.7742 9.50226 11.9862C10.772 12.1982 11.7742 13.2004 11.9862 14.4701ZM6.01383 9.50226C6.22584 10.772 7.22804 11.7742 8.49774 11.9862C7.22804 12.1982 6.22584 13.2004 6.01383 14.4701C5.80181 13.2004 4.79965 12.1982 3.52995 11.9862C4.79965 11.7742 5.80181 10.772 6.01383 9.50226Z" fill="#343438"/>
</svg>
