<svg width="16" height="16" viewBox="0 0 16 16" fill="none" xmlns="http://www.w3.org/2000/svg">
<path d="M13 2.00069H11.5V1.50071C11.5 1.11584 11.0833 0.875291 10.75 1.06773C10.5953 1.15704 10.5 1.32209 10.5 1.50071V2.00069H5.5V1.50071C5.5 1.11584 5.08333 0.875291 4.75 1.06773C4.5953 1.15704 4.5 1.32209 4.5 1.50071V2.00069H3C2.44771 2.00069 2 2.44838 2 3.00063V13.0001C2 13.5523 2.44771 14 3 14H13C13.5523 14 14 13.5523 14 13.0001V3.00063C14 2.44836 13.5523 2.00066 13 2.00069ZM4.5 3.00063V3.5006C4.5 3.88548 4.91667 4.12603 5.25 3.93359C5.4047 3.84428 5.5 3.67922 5.5 3.5006V3.00063H10.5V3.5006C10.5 3.88548 10.9167 4.12603 11.25 3.93359C11.4047 3.84428 11.5 3.67922 11.5 3.5006V3.00063H13V5.00051H3V3.00063H4.5ZM13 13.0001H3V6.00046H13V13.0001ZM8.75 8.25033C8.75 8.82765 8.125 9.18847 7.625 8.89981C7.125 8.61115 7.125 7.88951 7.625 7.60085C7.73902 7.53503 7.86835 7.50037 8 7.50037C8.41421 7.50037 8.75 7.83614 8.75 8.25033ZM11.5 8.25033C11.5 8.82765 10.875 9.18847 10.375 8.89981C9.875 8.61115 9.875 7.88951 10.375 7.60085C10.489 7.53503 10.6183 7.50037 10.75 7.50037C11.1642 7.50037 11.5 7.83614 11.5 8.25033ZM6 10.7502C6 11.3275 5.375 11.6883 4.875 11.3997C4.375 11.111 4.375 10.3894 4.875 10.1007C4.98901 10.0349 5.11835 10.0002 5.25 10.0002C5.66421 10.0002 6 10.336 6 10.7502ZM8.75 10.7502C8.75 11.3275 8.125 11.6883 7.625 11.3997C7.125 11.111 7.125 10.3894 7.625 10.1007C7.73902 10.0349 7.86835 10.0002 8 10.0002C8.41421 10.0002 8.75 10.336 8.75 10.7502ZM11.5 10.7502C11.5 11.3275 10.875 11.6883 10.375 11.3997C9.875 11.111 9.875 10.3894 10.375 10.1007C10.489 10.0349 10.6183 10.0002 10.75 10.0002C11.1642 10.0002 11.5 10.336 11.5 10.7502Z" fill="#C8C8C8"/>
</svg>
