<svg width="54" height="54" viewBox="0 0 54 54" fill="none" xmlns="http://www.w3.org/2000/svg">
<g clip-path="url(#clip0_1860_2922)">
<path d="M44.9995 31.5C45.5729 31.5006 46.1245 31.7202 46.5415 32.1139C46.9585 32.5076 47.2095 33.0456 47.2431 33.6181C47.2767 34.1906 47.0904 34.7543 46.7224 35.1941C46.3543 35.6339 45.8322 35.9165 45.2627 35.9842L44.9995 36H14.431L19.5902 41.1592C19.9937 41.5641 20.228 42.1075 20.2455 42.6789C20.2629 43.2502 20.0622 43.8068 19.6842 44.2356C19.3061 44.6644 18.779 44.9332 18.2099 44.9874C17.6408 45.0416 17.0724 44.8772 16.6202 44.5275L16.4087 44.3407L7.79121 35.7232C6.29496 34.2292 7.25346 31.7115 9.28296 31.5135L9.54171 31.5H44.9995ZM34.4087 9.65924C34.7961 9.27185 35.3116 9.03913 35.8584 9.00474C36.4052 8.97036 36.9458 9.13668 37.3787 9.47249L37.5902 9.65924L46.2077 18.2767C47.704 19.7707 46.7455 22.2885 44.716 22.4865L44.4572 22.5H8.99946C8.42598 22.4994 7.87439 22.2798 7.45738 21.8861C7.04038 21.4924 6.78943 20.9543 6.75582 20.3819C6.72221 19.8094 6.90848 19.2456 7.27656 18.8059C7.64463 18.3661 8.16675 18.0835 8.73621 18.0157L8.99946 18H39.568L34.4087 12.8407C33.9869 12.4188 33.7499 11.8466 33.7499 11.25C33.7499 10.6534 33.9869 10.0812 34.4087 9.65924Z" fill="url(#paint0_linear_1860_2922)"/>
</g>
<defs>
<linearGradient id="paint0_linear_1860_2922" x1="6.75195" y1="26.9989" x2="47.247" y2="26.9989" gradientUnits="userSpaceOnUse">
<stop stop-color="#87C25C"/>
<stop offset="1" stop-color="#5FC077"/>
</linearGradient>
<clipPath id="clip0_1860_2922">
<rect width="54" height="54" fill="white"/>
</clipPath>
</defs>
</svg>
