<svg width="51" height="51" viewBox="0 0 51 51" fill="none" xmlns="http://www.w3.org/2000/svg">
<path d="M42.1515 38.8549C43.4223 40.1256 42.8409 42.2953 41.1049 42.7604C40.2993 42.9763 39.4396 42.746 38.8499 42.1562L26.5192 29.823L14.1847 42.1523C12.9139 43.423 10.744 42.8416 10.2788 41.1059C10.0629 40.3003 10.2933 39.4408 10.8831 38.8511L23.2176 26.5217L10.8869 14.1884C9.61615 12.9177 10.1976 10.748 11.9335 10.2829C12.7392 10.0671 13.5988 10.2974 14.1886 10.8871L26.5192 23.2204L38.8537 10.8852C40.1245 9.6145 42.2945 10.1959 42.7596 11.9316C42.9755 12.7372 42.7452 13.5968 42.1554 14.1865L29.8208 26.5217L42.1515 38.8549Z" fill="url(#paint0_linear_1860_2929)"/>
<defs>
<linearGradient id="paint0_linear_1860_2929" x1="10.1992" y1="26.52" x2="42.8392" y2="26.52" gradientUnits="userSpaceOnUse">
<stop stop-color="#87C25C"/>
<stop offset="1" stop-color="#5FC077"/>
</linearGradient>
</defs>
</svg>
