<svg width="16" height="16" viewBox="0 0 16 16" fill="none" xmlns="http://www.w3.org/2000/svg">
<path d="M12.8537 5.64625L9.35375 2.14625C9.2599 2.05251 9.13265 1.9999 9 2H3C2.44769 1.99997 2 2.4477 2 3V14C2 14.5523 2.44769 15 3 15H12C12.5523 15 13 14.5523 13 14V6C13.0001 5.86735 12.9475 5.7401 12.8537 5.64625ZM9.5 11.5H5.5C5.1151 11.5 4.87453 11.0833 5.067 10.75C5.15631 10.5953 5.32137 10.5 5.5 10.5H9.5C9.8849 10.5 10.1255 10.9167 9.93301 11.25C9.8437 11.4047 9.67862 11.5 9.5 11.5ZM9.5 9.5H5.5C5.1151 9.49998 4.87453 9.08331 5.067 8.74998C5.15631 8.59529 5.32137 8.5 5.5 8.5H9.5C9.8849 8.5 10.1255 8.91667 9.93301 9.25C9.8437 9.40469 9.67862 9.49999 9.5 9.5ZM9 6V3.25L11.75 6H9Z" fill="#C8C8C8"/>
</svg>
