<svg width="16" height="16" viewBox="0 0 16 16" fill="none" xmlns="http://www.w3.org/2000/svg">
<path d="M8.5 7.5C7.73611 7.5 7.08681 7.23264 6.55208 6.69792C6.01736 6.16319 5.75 5.51389 5.75 4.75C5.75 3.98611 6.01736 3.33681 6.55208 2.80208C7.08681 2.26736 7.73611 2 8.5 2C9.26389 2 9.91319 2.26736 10.4479 2.80208C10.9826 3.33681 11.25 3.98611 11.25 4.75C11.25 5.51389 10.9826 6.16319 10.4479 6.69792C9.91319 7.23264 9.26389 7.5 8.5 7.5ZM3 13V11.1667C3 10.8738 3.07957 10.5969 3.23872 10.3359C3.39786 10.0749 3.61748 9.85532 3.89757 9.67708C4.5978 9.26968 5.33941 8.95776 6.1224 8.74132C6.90538 8.52488 7.69792 8.41667 8.5 8.41667C9.30208 8.41667 10.0946 8.52488 10.8776 8.74132C11.6606 8.95776 12.4022 9.26968 13.1024 9.67708C13.3825 9.84259 13.6021 10.059 13.7613 10.3264C13.9204 10.5938 14 10.8738 14 11.1667V13H3Z" fill="#C8C8C8"/>
</svg>
