<svg width="18" height="18" viewBox="0 0 18 18" fill="none" xmlns="http://www.w3.org/2000/svg">
<path d="M14.9492 2.44702H13.0742V1.82398C13.0742 1.34436 12.5534 1.04461 12.1367 1.28441C11.9433 1.39571 11.8242 1.60139 11.8242 1.82398V2.44702H5.57422V1.82398C5.57422 1.34436 5.05339 1.04461 4.63672 1.28441C4.44334 1.39571 4.32422 1.60139 4.32422 1.82398V2.44702H2.44922C1.75886 2.44702 1.19922 3.00491 1.19922 3.6931V16.1539C1.19922 16.8421 1.75886 17.4 2.44922 17.4H14.9492C15.6396 17.4 16.1992 16.8421 16.1992 16.1539V3.6931C16.1992 3.00489 15.6396 2.44699 14.9492 2.44702ZM4.32422 3.6931V4.31614C4.32422 4.79576 4.84505 5.09552 5.26172 4.85571C5.45509 4.74442 5.57422 4.53874 5.57422 4.31614V3.6931H11.8242V4.31614C11.8242 4.79576 12.3451 5.09552 12.7617 4.85571C12.9551 4.74442 13.0742 4.53874 13.0742 4.31614V3.6931H14.9492V6.18527H2.44922V3.6931H4.32422ZM14.9492 16.1539H2.44922V7.43135H14.9492V16.1539ZM9.63672 10.235C9.63672 10.9545 8.85547 11.4041 8.23047 11.0444C7.60547 10.6847 7.60547 9.7854 8.23047 9.42568C8.37299 9.34366 8.53465 9.30048 8.69922 9.30048C9.21699 9.30048 9.63672 9.71889 9.63672 10.235ZM13.0742 10.235C13.0742 10.9545 12.293 11.4041 11.668 11.0444C11.043 10.6847 11.043 9.7854 11.668 9.42568C11.8105 9.34366 11.9722 9.30048 12.1367 9.30048C12.6545 9.30048 13.0742 9.71889 13.0742 10.235ZM6.19922 13.3502C6.19922 14.0697 5.41797 14.5193 4.79297 14.1596C4.16797 13.7999 4.16797 12.9006 4.79297 12.5409C4.93549 12.4589 5.09715 12.4157 5.26172 12.4157C5.77949 12.4157 6.19922 12.8341 6.19922 13.3502ZM9.63672 13.3502C9.63672 14.0697 8.85547 14.5193 8.23047 14.1596C7.60547 13.7999 7.60547 12.9006 8.23047 12.5409C8.37299 12.4589 8.53465 12.4157 8.69922 12.4157C9.21699 12.4157 9.63672 12.8341 9.63672 13.3502ZM13.0742 13.3502C13.0742 14.0697 12.293 14.5193 11.668 14.1596C11.043 13.7999 11.043 12.9006 11.668 12.5409C11.8105 12.4589 11.9722 12.4157 12.1367 12.4157C12.6545 12.4157 13.0742 12.8341 13.0742 13.3502Z" fill="#A4A4A4"/>
</svg>
