<svg width="18" height="18" viewBox="0 0 18 18" fill="none" xmlns="http://www.w3.org/2000/svg">
<path d="M9.00078 8.99999C8.00078 8.99999 7.15078 8.64999 6.45078 7.94999C5.75078 7.24999 5.40078 6.39999 5.40078 5.39999C5.40078 4.39999 5.75078 3.54999 6.45078 2.84999C7.15078 2.14999 8.00078 1.79999 9.00078 1.79999C10.0008 1.79999 10.8508 2.14999 11.5508 2.84999C12.2508 3.54999 12.6008 4.39999 12.6008 5.39999C12.6008 6.39999 12.2508 7.24999 11.5508 7.94999C10.8508 8.64999 10.0008 8.99999 9.00078 8.99999ZM1.80078 16.2V13.8C1.80078 13.4167 1.90495 13.0542 2.11328 12.7125C2.32161 12.3708 2.60911 12.0833 2.97578 11.85C3.89245 11.3167 4.86328 10.9083 5.88828 10.625C6.91328 10.3417 7.95078 10.2 9.00078 10.2C10.0508 10.2 11.0883 10.3417 12.1133 10.625C13.1383 10.9083 14.1091 11.3167 15.0258 11.85C15.3924 12.0667 15.6799 12.35 15.8883 12.7C16.0966 13.05 16.2008 13.4167 16.2008 13.8V16.2H1.80078Z" fill="#A4A4A4"/>
</svg>
