<svg width="18" height="18" viewBox="0 0 18 18" fill="none" xmlns="http://www.w3.org/2000/svg">
<path d="M9.64272 8.76601V5.43151C9.64272 5.26253 9.58746 5.12275 9.47697 5.01226C9.36648 4.90178 9.2267 4.84651 9.05772 4.84651C8.88873 4.84651 8.74896 4.90178 8.63847 5.01226C8.52798 5.12275 8.47272 5.26253 8.47272 5.43151V9.00001C8.47272 9.07801 8.48571 9.1495 8.51172 9.21451C8.53773 9.27952 8.57673 9.3445 8.62872 9.40951L11.4367 12.315C11.5537 12.445 11.7 12.5068 11.8755 12.5003C12.051 12.4937 12.1972 12.432 12.3142 12.315C12.4312 12.198 12.4897 12.055 12.4897 11.886C12.4897 11.717 12.4312 11.574 12.3142 11.457L9.64272 8.76601ZM8.99922 16.8C7.93323 16.8 6.92571 16.5953 5.97672 16.1858C5.02773 15.7763 4.19898 15.2173 3.49047 14.5088C2.78197 13.8002 2.22297 12.9715 1.81347 12.0225C1.40397 11.0735 1.19922 10.066 1.19922 9.00001C1.19922 7.93403 1.40397 6.9265 1.81347 5.97751C2.22297 5.02853 2.78197 4.19978 3.49047 3.49126C4.19898 2.78276 5.02773 2.22376 5.97672 1.81426C6.92571 1.40476 7.93323 1.20001 8.99922 1.20001C10.0652 1.20001 11.0727 1.40476 12.0217 1.81426C12.9707 2.22376 13.7995 2.78276 14.508 3.49126C15.2165 4.19978 15.7755 5.02853 16.185 5.97751C16.5945 6.9265 16.7992 7.93403 16.7992 9.00001C16.7992 10.066 16.5945 11.0735 16.185 12.0225C15.7755 12.9715 15.2165 13.8002 14.508 14.5088C13.7995 15.2173 12.9707 15.7763 12.0217 16.1858C11.0727 16.5953 10.0652 16.8 8.99922 16.8ZM8.99922 15.63C10.8192 15.63 12.3792 14.98 13.6792 13.68C14.9792 12.38 15.6292 10.82 15.6292 9.00001C15.6292 7.18 14.9792 5.62 13.6792 4.32001C12.3792 3.02001 10.8192 2.37001 8.99922 2.37001C7.17921 2.37001 5.61921 3.02001 4.31922 4.32001C3.01922 5.62 2.36922 7.18 2.36922 9.00001C2.36922 10.82 3.01922 12.38 4.31922 13.68C5.61921 14.98 7.17921 15.63 8.99922 15.63Z" fill="#A4A4A4"/>
</svg>
