<svg width="100" height="100" viewBox="0 0 100 100" fill="none" xmlns="http://www.w3.org/2000/svg">
<mask id="mask0_2319_3101" style="mask-type:alpha" maskUnits="userSpaceOnUse" x="0" y="0" width="100" height="100">
<rect width="100" height="100" fill="#D9D9D9"/>
</mask>
<g mask="url(#mask0_2319_3101)">
<path d="M50.3333 50.0003C45.75 50.0003 41.8264 48.3684 38.5625 45.1045C35.2986 41.8406 33.6667 37.917 33.6667 33.3337C33.6667 28.7503 35.2986 24.8267 38.5625 21.5628C41.8264 18.2989 45.75 16.667 50.3333 16.667C54.9167 16.667 58.8403 18.2989 62.1042 21.5628C65.3681 24.8267 67 28.7503 67 33.3337C67 37.917 65.3681 41.8406 62.1042 45.1045C58.8403 48.3684 54.9167 50.0003 50.3333 50.0003ZM17 83.3337V71.667C17 69.3059 17.6076 67.1357 18.8229 65.1566C20.0382 63.1774 21.6528 61.667 23.6667 60.6253C27.9722 58.4725 32.3472 56.858 36.7917 55.7816C41.2361 54.7052 45.75 54.167 50.3333 54.167C54.9167 54.167 59.4306 54.7052 63.875 55.7816C68.3194 56.858 72.6944 58.4725 77 60.6253C79.0139 61.667 80.6285 63.1774 81.8438 65.1566C83.059 67.1357 83.6667 69.3059 83.6667 71.667V83.3337H17Z" fill="#F0F0F0"/>
</g>
</svg>
