<svg width="18" height="19" viewBox="0 0 18 19" fill="none" xmlns="http://www.w3.org/2000/svg">
<path d="M15.875 1.75095H13.8125V1.06348C13.8125 0.534273 13.2396 0.203525 12.7813 0.468129C12.5685 0.590927 12.4375 0.817879 12.4375 1.06348V1.75095H5.5625V1.06348C5.5625 0.534273 4.98958 0.203525 4.53125 0.468129C4.31854 0.590927 4.1875 0.817879 4.1875 1.06348V1.75095H2.125C1.36561 1.75095 0.75 2.36652 0.75 3.12586V16.8751C0.75 17.6344 1.36561 18.25 2.125 18.25H15.875C16.6344 18.25 17.25 17.6344 17.25 16.8751V3.12586C17.25 2.36649 16.6344 1.75091 15.875 1.75095ZM4.1875 3.12586V3.81332C4.1875 4.34253 4.76042 4.67329 5.21875 4.40868C5.43146 4.28588 5.5625 4.05893 5.5625 3.81332V3.12586H12.4375V3.81332C12.4375 4.34253 13.0104 4.67329 13.4687 4.40868C13.6815 4.28588 13.8125 4.05893 13.8125 3.81332V3.12586H15.875V5.87571H2.125V3.12586H4.1875ZM15.875 16.8751H2.125V7.25063H15.875V16.8751ZM10.0312 10.3442C10.0312 11.138 9.17187 11.6341 8.48438 11.2372C7.79687 10.8403 7.79687 9.84807 8.48438 9.45116C8.64115 9.36066 8.81898 9.31301 9 9.31301C9.56954 9.31301 10.0312 9.77469 10.0312 10.3442ZM13.8125 10.3442C13.8125 11.138 12.9531 11.6341 12.2656 11.2372C11.5781 10.8403 11.5781 9.84807 12.2656 9.45116C12.4224 9.36066 12.6002 9.31301 12.7813 9.31301C13.3508 9.31301 13.8125 9.77469 13.8125 10.3442ZM6.25 13.7815C6.25 14.5753 5.39062 15.0714 4.70313 14.6745C4.01563 14.2776 4.01563 13.2854 4.70313 12.8885C4.85989 12.798 5.03773 12.7503 5.21875 12.7503C5.78829 12.7503 6.25 13.212 6.25 13.7815ZM10.0312 13.7815C10.0312 14.5753 9.17187 15.0714 8.48438 14.6745C7.79687 14.2776 7.79687 13.2854 8.48438 12.8885C8.64115 12.798 8.81898 12.7503 9 12.7503C9.56954 12.7503 10.0312 13.212 10.0312 13.7815ZM13.8125 13.7815C13.8125 14.5753 12.9531 15.0714 12.2656 14.6745C11.5781 14.2776 11.5781 13.2854 12.2656 12.8885C12.4224 12.798 12.6002 12.7503 12.7813 12.7503C13.3508 12.7503 13.8125 13.212 13.8125 13.7815Z" fill="#87C25C"/>
</svg>
