<svg width="16" height="16" viewBox="0 0 16 16" fill="none" xmlns="http://www.w3.org/2000/svg">
<path d="M7.6875 8.3125C6.63715 8.3125 5.74436 7.94488 5.00911 7.20964C4.27387 6.47439 3.90625 5.5816 3.90625 4.53125C3.90625 3.4809 4.27387 2.58811 5.00911 1.85286C5.74436 1.11762 6.63715 0.75 7.6875 0.75C8.73785 0.75 9.63064 1.11762 10.3659 1.85286C11.1011 2.58811 11.4688 3.4809 11.4688 4.53125C11.4688 5.5816 11.1011 6.47439 10.3659 7.20964C9.63064 7.94488 8.73785 8.3125 7.6875 8.3125ZM0.125 15.875V13.3542C0.125 12.9515 0.234411 12.5708 0.453234 12.2119C0.672056 11.853 0.974031 11.5511 1.35916 11.306C2.32198 10.7458 3.34169 10.3169 4.41829 10.0193C5.4949 9.72172 6.58464 9.57292 7.6875 9.57292C8.79036 9.57292 9.8801 9.72172 10.9567 10.0193C12.0333 10.3169 13.053 10.7458 14.0158 11.306C14.401 11.5336 14.7029 11.8312 14.9218 12.1988C15.1406 12.5664 15.25 12.9515 15.25 13.3542V15.875H0.125Z" fill="#87C25C"/>
</svg>
