<svg width="21" height="23" viewBox="0 0 21 23" xmlns="http://www.w3.org/2000/svg">
<path d="M2.69587 22.5841C2.13917 22.5841 1.67438 22.3976 1.3015 22.0247C0.928627 21.6519 0.742188 21.1871 0.742188 20.6304V5.18839C0.742188 4.63169 0.928627 4.16691 1.3015 3.79403C1.67438 3.42115 2.13917 3.23471 2.69587 3.23471H4.83518V0.536987H6.13764V3.23471H14.7892V0.536987H15.9986V3.23471H18.1379C18.6946 3.23471 19.1594 3.42115 19.5322 3.79403C19.9051 4.16691 20.0915 4.63169 20.0915 5.18839V20.6304C20.0915 21.1871 19.9051 21.6519 19.5322 22.0247C19.1594 22.3976 18.6946 22.5841 18.1379 22.5841H2.69587ZM2.69587 21.3747H18.1379C18.3241 21.3747 18.4947 21.2972 18.6497 21.1422C18.8047 20.9872 18.8822 20.8166 18.8822 20.6304V10.0257H1.95152V20.6304C1.95152 20.8166 2.02902 20.9872 2.18402 21.1422C2.33901 21.2972 2.50963 21.3747 2.69587 21.3747ZM1.95152 8.81609H18.8822V5.18839C18.8822 5.00215 18.8047 4.83154 18.6497 4.67654C18.4947 4.52154 18.3241 4.44405 18.1379 4.44405H2.69587C2.50963 4.44405 2.33901 4.52154 2.18402 4.67654C2.02902 4.83154 1.95152 5.00215 1.95152 5.18839V8.81609ZM10.4169 14.3047C10.1673 14.3047 9.94986 14.212 9.76443 14.0268C9.5792 13.8416 9.48659 13.6241 9.48659 13.3744C9.48659 13.1249 9.5792 12.9075 9.76443 12.7222C9.94986 12.537 10.1673 12.4444 10.4169 12.4444C10.6664 12.4444 10.8839 12.537 11.0693 12.7222C11.2545 12.9075 11.3471 13.1249 11.3471 13.3744C11.3471 13.6241 11.2545 13.8416 11.0693 14.0268C10.8839 14.212 10.6664 14.3047 10.4169 14.3047ZM5.57953 14.3047C5.33 14.3047 5.11252 14.212 4.92709 14.0268C4.74186 13.8416 4.64925 13.6241 4.64925 13.3744C4.64925 13.1249 4.74186 12.9075 4.92709 12.7222C5.11252 12.537 5.33 12.4444 5.57953 12.4444C5.82905 12.4444 6.04653 12.537 6.23196 12.7222C6.41719 12.9075 6.50981 13.1249 6.50981 13.3744C6.50981 13.6241 6.41719 13.8416 6.23196 14.0268C6.04653 14.212 5.82905 14.3047 5.57953 14.3047ZM15.2542 14.3047C15.0047 14.3047 14.7872 14.212 14.6018 14.0268C14.4165 13.8416 14.3239 13.6241 14.3239 13.3744C14.3239 13.1249 14.4165 12.9075 14.6018 12.7222C14.7872 12.537 15.0047 12.4444 15.2542 12.4444C15.5037 12.4444 15.7212 12.537 15.9066 12.7222C16.0919 12.9075 16.1845 13.1249 16.1845 13.3744C16.1845 13.6241 16.0919 13.8416 15.9066 14.0268C15.7212 14.212 15.5037 14.3047 15.2542 14.3047ZM10.4169 18.9561C10.1673 18.9561 9.94986 18.8634 9.76443 18.6782C9.5792 18.493 9.48659 18.2755 9.48659 18.0258C9.48659 17.7763 9.5792 17.5588 9.76443 17.3733C9.94986 17.1881 10.1673 17.0955 10.4169 17.0955C10.6664 17.0955 10.8839 17.1881 11.0693 17.3733C11.2545 17.5588 11.3471 17.7763 11.3471 18.0258C11.3471 18.2755 11.2545 18.493 11.0693 18.6782C10.8839 18.8634 10.6664 18.9561 10.4169 18.9561ZM5.57953 18.9561C5.33 18.9561 5.11252 18.8634 4.92709 18.6782C4.74186 18.493 4.64925 18.2755 4.64925 18.0258C4.64925 17.7763 4.74186 17.5588 4.92709 17.3733C5.11252 17.1881 5.33 17.0955 5.57953 17.0955C5.82905 17.0955 6.04653 17.1881 6.23196 17.3733C6.41719 17.5588 6.50981 17.7763 6.50981 18.0258C6.50981 18.2755 6.41719 18.493 6.23196 18.6782C6.04653 18.8634 5.82905 18.9561 5.57953 18.9561ZM15.2542 18.9561C15.0047 18.9561 14.7872 18.8634 14.6018 18.6782C14.4165 18.493 14.3239 18.2755 14.3239 18.0258C14.3239 17.7763 14.4165 17.5588 14.6018 17.3733C14.7872 17.1881 15.0047 17.0955 15.2542 17.0955C15.5037 17.0955 15.7212 17.1881 15.9066 17.3733C16.0919 17.5588 16.1845 17.7763 16.1845 18.0258C16.1845 18.2755 16.0919 18.493 15.9066 18.6782C15.7212 18.8634 15.5037 18.9561 15.2542 18.9561Z"/>
</svg>
