<svg width="23" height="23" viewBox="0 0 23 23" xmlns="http://www.w3.org/2000/svg">
<path d="M2.36384 22.5844C1.80714 22.5844 1.34235 22.398 0.969474 22.0251C0.596595 21.6522 0.410156 21.1875 0.410156 20.6308V5.18876C0.410156 4.63206 0.596595 4.16727 0.969474 3.79439C1.34235 3.42152 1.80714 3.23508 2.36384 3.23508H4.50315V0.537354H5.8056V3.23508H14.4572V0.537354H15.6665V3.23508H17.8058C18.3625 3.23508 18.8273 3.42152 19.2002 3.79439C19.5731 4.16727 19.7595 4.63206 19.7595 5.18876V11.2354H18.5502V10.0261H1.61949V20.6308C1.61949 20.817 1.69699 20.9876 1.85199 21.1426C2.00698 21.2976 2.1776 21.3751 2.36384 21.3751H9.8989V22.5844H2.36384ZM1.61949 8.81646H18.5502V5.18876C18.5502 5.00252 18.4727 4.8319 18.3177 4.67691C18.1627 4.52191 17.9921 4.44441 17.8058 4.44441H2.36384C2.1776 4.44441 2.00698 4.52191 1.85199 4.67691C1.69699 4.8319 1.61949 5.00252 1.61949 5.18876V8.81646ZM12.7826 22.5844V19.9124L19.2316 13.4936C19.351 13.374 19.475 13.2934 19.6038 13.2517C19.7324 13.2098 19.8611 13.1888 19.9899 13.1888C20.1231 13.1888 20.258 13.2148 20.3944 13.2668C20.5309 13.3186 20.651 13.3965 20.7548 13.5005L21.8734 14.6424C21.9728 14.7618 22.0484 14.8858 22.1002 15.0146C22.1522 15.1432 22.1782 15.2718 22.1782 15.4004C22.1782 15.5292 22.1534 15.6591 22.1038 15.7901C22.0542 15.9211 21.9774 16.0463 21.8734 16.1656L15.4549 22.5844H12.7826ZM13.8525 21.5148H15.0014L19.1945 17.3145L18.627 16.74L18.0758 16.1493L13.8525 20.3659V21.5148ZM18.627 16.74L18.0758 16.1493L19.1945 17.3145L18.627 16.74Z"/>
</svg>
