<svg width="20" height="18" viewBox="0 0 20 18" xmlns="http://www.w3.org/2000/svg">
<path d="M0.285156 11.1186V9.9093H8.7505V11.1186H0.285156ZM0.285156 6.28129V5.07196H13.5878V6.28129H0.285156ZM0.285156 1.44395V0.234619H13.5878V1.44395H0.285156ZM10.2389 17.1653V14.4933L16.688 8.07444C16.8073 7.95491 16.9304 7.87429 17.0574 7.83257C17.1844 7.79064 17.3114 7.76968 17.4384 7.76968C17.5768 7.76968 17.7129 7.79568 17.8465 7.84769C17.9803 7.89948 18.1019 7.97739 18.2111 8.08139L19.3298 9.2233C19.4291 9.34262 19.5047 9.46668 19.5565 9.59548C19.6085 9.72407 19.6345 9.85266 19.6345 9.98126C19.6345 10.11 19.6097 10.24 19.5601 10.371C19.5106 10.502 19.4338 10.6271 19.3298 10.7465L12.9112 17.1653H10.2389ZM11.3088 16.0957H12.4577L16.6508 11.8953L16.0833 11.3209L15.5321 10.7301L11.3088 14.9468V16.0957ZM16.0833 11.3209L15.5321 10.7301L16.6508 11.8953L16.0833 11.3209Z"/>
</svg>
