<svg width="22" height="23" viewBox="0 0 22 23" xmlns="http://www.w3.org/2000/svg">
<path d="M8.64832 22.5841L8.21115 19.0864C7.82517 18.9701 7.40775 18.7871 6.95888 18.5373C6.51002 18.2878 6.12827 18.0204 5.81364 17.7352L2.58774 19.1072L0.332031 15.1769L3.12045 13.0745C3.08478 12.856 3.05535 12.6308 3.03217 12.399C3.00879 12.1673 2.9971 11.942 2.9971 11.7233C2.9971 11.5202 3.00879 11.3066 3.03217 11.0827C3.05535 10.8586 3.08478 10.6062 3.12045 10.3256L0.332031 8.22322L2.58774 4.33944L5.79036 5.68815C6.15155 5.38743 6.54227 5.11613 6.96251 4.87427C7.38255 4.6324 7.79101 4.44556 8.18787 4.31374L8.64832 0.81604H13.1604L13.5975 4.33702C14.0611 4.49988 14.4708 4.68672 14.8265 4.89755C15.1823 5.10837 15.5486 5.37191 15.9255 5.68815L19.2209 4.33944L21.4766 8.22322L18.5951 10.3955C18.6618 10.645 18.6991 10.8741 18.707 11.0827C18.7146 11.2911 18.7185 11.4969 18.7185 11.7001C18.7185 11.8877 18.7107 12.0857 18.6952 12.2941C18.6797 12.5027 18.644 12.7551 18.5882 13.0512L21.4231 15.1769L19.1674 19.1072L15.9255 17.712C15.5486 18.0282 15.1695 18.2995 14.7881 18.5258C14.4068 18.7522 14.0099 18.9313 13.5975 19.0631L13.1604 22.5841H8.64832ZM9.695 21.3747H12.0602L12.5067 18.1002C13.116 17.9389 13.6644 17.7176 14.152 17.4362C14.6398 17.1549 15.1363 16.7692 15.6416 16.2792L18.658 17.5653L19.8604 15.5095L17.2137 13.521C17.3145 13.1768 17.3812 12.8601 17.4139 12.5711C17.4463 12.2818 17.4626 11.9915 17.4626 11.7001C17.4626 11.3931 17.4463 11.1027 17.4139 10.829C17.3812 10.5555 17.3145 10.2544 17.2137 9.92566L19.9069 7.89065L18.7045 5.83478L15.6183 7.12786C15.2525 6.72636 14.7715 6.34996 14.1753 5.99864C13.5793 5.64753 13.0153 5.41464 12.4834 5.29995L12.1137 2.02537H9.70196L9.32525 5.27667C8.71595 5.40688 8.15582 5.61659 7.64488 5.90583C7.13414 6.19486 6.62601 6.59213 6.12051 7.09763L3.10413 5.83478L1.90175 7.89065L4.5251 9.84887C4.42432 10.1202 4.35378 10.4147 4.31346 10.7326C4.27315 11.0504 4.253 11.3807 4.253 11.7233C4.253 12.0303 4.27315 12.335 4.31346 12.6373C4.35378 12.9396 4.41656 13.2342 4.50182 13.521L1.90175 15.5095L3.10413 17.5653L6.09723 16.2955C6.57169 16.7746 7.0643 17.1588 7.57504 17.448C8.08598 17.7371 8.66163 17.9622 9.30197 18.1234L9.695 21.3747ZM10.8717 14.7234C11.7152 14.7234 12.43 14.4303 13.0161 13.8442C13.6021 13.2583 13.895 12.5436 13.895 11.7001C13.895 10.8565 13.6021 10.1418 13.0161 9.5559C12.43 8.96978 11.7152 8.67672 10.8717 8.67672C10.0237 8.67672 9.30781 8.96978 8.72391 9.5559C8.1402 10.1418 7.84835 10.8565 7.84835 11.7001C7.84835 12.5436 8.1402 13.2583 8.72391 13.8442C9.30781 14.4303 10.0237 14.7234 10.8717 14.7234Z"/>
</svg>
