<svg width="16" height="16" viewBox="0 0 16 16" fill="none" xmlns="http://www.w3.org/2000/svg">
<path fill-rule="evenodd" clip-rule="evenodd" d="M4.5628 10.9209L2.93094 3.40809H1.7038C1.39385 3.40809 1.14258 3.15682 1.14258 2.84687C1.14258 2.53691 1.39385 2.28564 1.7038 2.28564H3.01931C3.48101 2.28561 3.90916 2.61314 4.00808 3.07899L4.21558 4.03429H12.7037C13.2778 4.03634 13.8236 4.54432 13.695 5.21676L12.9583 8.71586C12.8298 9.326 12.2423 9.51176 11.9645 9.52839H5.40895L5.63993 10.5918H11.0202C11.3301 10.5918 11.5814 10.843 11.5814 11.153C11.5814 11.463 11.3301 11.7142 11.0202 11.7142H5.55156C5.08986 11.7142 4.66171 11.3867 4.5628 10.9209ZM5.16515 8.40594H11.8766L12.5527 5.15674H4.45939L5.16515 8.40594ZM10.5712 12.8367C11.1291 12.8367 11.5814 13.289 11.5814 13.8469C11.5814 14.4048 11.1291 14.8571 10.5712 14.8571C10.0132 14.8571 9.56095 14.4048 9.56095 13.8469C9.56095 13.289 10.0132 12.8367 10.5712 12.8367ZM7.09156 13.8469C7.09156 13.289 6.63927 12.8367 6.08135 12.8367C5.52343 12.8367 5.07115 13.289 5.07115 13.8469C5.07115 14.4048 5.52343 14.8571 6.08135 14.8571C6.63927 14.8571 7.09156 14.4048 7.09156 13.8469Z" fill="#C8C8C8"/>
</svg>
