<svg width="127" height="127" viewBox="0 0 127 127" fill="none" xmlns="http://www.w3.org/2000/svg">
<path d="M63.5 0C98.5701 0 127 28.4299 127 63.5C127 98.5701 98.5701 127 63.5 127C28.4299 127 0 98.5701 0 63.5C0 28.4299 28.4299 0 63.5 0ZM88.4248 44.0361C87.0031 42.5871 84.6942 42.5871 83.2725 44.0361L56.7266 71.0811L44.7383 58.874C43.3165 57.4253 41.0076 57.4251 39.5859 58.874C38.1643 60.3231 38.1643 62.6769 39.5859 64.126L54.1445 78.9639C55.5662 80.4129 57.8752 80.4129 59.2969 78.9639L88.4141 49.2871C89.8354 47.8381 89.8354 45.4851 88.4141 44.0361H88.4248Z" fill="white"/>
</svg>
