<svg width="48" height="48" viewBox="0 0 48 48" fill="none" xmlns="http://www.w3.org/2000/svg">
<circle cx="24" cy="24" r="24" fill="#EAF1E5"/>
<path d="M37.531 34.4695H10.4285C9.00026 34.4695 7.83691 33.3056 7.83691 31.8765V16.3074C7.83691 14.8783 9.00026 13.7144 10.4285 13.7144H37.531C38.9593 13.7144 40.1226 14.8783 40.1226 16.3074V31.8765C40.1226 33.3171 38.9593 34.4695 37.531 34.4695Z" fill="#81B55C"/>
<path d="M32.4965 27.5512H12.0034C11.6206 27.5512 11.2959 27.2368 11.2959 26.8407V23.6495C11.2959 23.265 11.609 22.939 12.0034 22.939H32.4965C32.8794 22.939 33.2041 23.2534 33.2041 23.6495V26.8523C33.2041 27.2368 32.8909 27.5512 32.4965 27.5512Z" fill="#F4F4F4"/>
<path d="M34.7646 32.1632H36.8327C37.3805 32.1632 37.8165 31.7272 37.8165 31.1794V29.1112C37.8165 28.5634 37.3805 28.1274 36.8327 28.1274H34.7646C34.2167 28.1274 33.7808 28.5634 33.7808 29.1112V31.1794C33.7808 31.716 34.2279 32.1632 34.7646 32.1632Z" fill="#FFF478"/>
<path d="M40.1226 17.1733H7.83691V20.6325H40.1226V17.1733Z" fill="#44584A"/>
<path d="M12.4487 25.245C12.4487 24.9266 12.7069 24.6685 13.0253 24.6685H25.7089C26.0273 24.6685 26.2855 24.9266 26.2855 25.245C26.2855 25.5633 26.0273 25.8215 25.7089 25.8215H13.0253C12.7069 25.8215 12.4487 25.5633 12.4487 25.245Z" fill="#9B9B9B"/>
</svg>
