<svg width="15" height="15" viewBox="0 0 15 15" fill="none" xmlns="http://www.w3.org/2000/svg">
<g clip-path="url(#clip0_1650_1417)">
<path d="M12.4993 8.74991C12.6586 8.75009 12.8118 8.81109 12.9277 8.92044C13.0435 9.0298 13.1132 9.17926 13.1225 9.33828C13.1319 9.49731 13.0801 9.6539 12.9779 9.77606C12.8756 9.89822 12.7306 9.97672 12.5724 9.99554L12.4993 9.99991H4.00806L5.44118 11.433C5.55328 11.5455 5.61835 11.6964 5.6232 11.8552C5.62805 12.0139 5.5723 12.1685 5.46728 12.2876C5.36226 12.4067 5.21584 12.4814 5.05776 12.4964C4.89968 12.5115 4.7418 12.4658 4.61618 12.3687L4.55743 12.3168L2.16368 9.92304C1.74806 9.50804 2.01431 8.80866 2.57806 8.75366L2.64993 8.74991H12.4993ZM9.55743 2.68304C9.66505 2.57543 9.80824 2.51078 9.96013 2.50123C10.112 2.49168 10.2622 2.53788 10.3824 2.63116L10.4412 2.68304L12.8349 5.07679C13.2506 5.49179 12.9843 6.19116 12.4206 6.24616L12.3487 6.24991H2.49931C2.34001 6.24974 2.18679 6.18874 2.07095 6.07938C1.95512 5.97003 1.88541 5.82057 1.87608 5.66154C1.86674 5.50252 1.91848 5.34593 2.02072 5.22377C2.12297 5.10161 2.268 5.0231 2.42618 5.00429L2.49931 4.99991H10.9906L9.55743 3.56679C9.44026 3.44958 9.37444 3.29064 9.37444 3.12491C9.37444 2.95919 9.44026 2.80024 9.55743 2.68304Z" fill="#C8C8C8"/>
</g>
<defs>
<clipPath id="clip0_1650_1417">
<rect width="15" height="15" fill="white"/>
</clipPath>
</defs>
</svg>
