<svg width="48" height="48" viewBox="0 0 48 48" fill="none" xmlns="http://www.w3.org/2000/svg">
<path d="M24 47.9977C37.255 47.9977 48 37.2532 48 23.9989C48 10.7445 37.255 0 24 0C10.745 0 0 10.7445 0 23.9989C0 37.2532 10.745 47.9977 24 47.9977Z" fill="#EAF1E5"/>
<path d="M10.0366 11.7117C10.0366 11.2673 10.2132 10.8411 10.5274 10.5269C10.8416 10.2127 11.2679 10.0361 11.7123 10.0361H24.0003L30.9821 15.9006V36.2865C30.9821 36.5066 30.9387 36.7245 30.8545 36.9277C30.7703 37.131 30.6469 37.3157 30.4913 37.4713C30.3357 37.6269 30.151 37.7503 29.9477 37.8345C29.7444 37.9187 29.5265 37.9621 29.3064 37.9621H11.7123C11.2679 37.9621 10.8416 37.7856 10.5274 37.4713C10.2132 37.1571 10.0366 36.7309 10.0366 36.2865V11.7117Z" fill="white"/>
<path d="M24 10.0361V14.225C24 14.6694 24.1765 15.0956 24.4908 15.4098C24.805 15.7241 25.2312 15.9006 25.6756 15.9006H30.9818L24 10.0361Z" fill="#D9DADA"/>
<path d="M22.2546 17.89C22.2546 18.0057 22.2086 18.1167 22.1268 18.1985C22.045 18.2803 21.934 18.3263 21.8183 18.3263H13.9637C13.848 18.3263 13.737 18.2803 13.6552 18.1985C13.5733 18.1167 13.5273 18.0057 13.5273 17.89C13.5273 17.7742 13.5733 17.6632 13.6552 17.5814C13.737 17.4996 13.848 17.4536 13.9637 17.4536H21.8183C21.934 17.4536 22.045 17.4996 22.1268 17.5814C22.2086 17.6632 22.2546 17.7742 22.2546 17.89Z" fill="#666666"/>
<path d="M27.491 21.3807C27.491 21.4964 27.445 21.6074 27.3632 21.6892C27.2813 21.7711 27.1703 21.817 27.0546 21.817H13.9637C13.848 21.817 13.737 21.7711 13.6552 21.6892C13.5733 21.6074 13.5273 21.4964 13.5273 21.3807C13.5273 21.265 13.5733 21.154 13.6552 21.0721C13.737 20.9903 13.848 20.9443 13.9637 20.9443H27.0546C27.1703 20.9443 27.2813 20.9903 27.3632 21.0721C27.445 21.154 27.491 21.265 27.491 21.3807Z" fill="#666666"/>
<path d="M27.491 24.8714C27.491 24.9871 27.445 25.0981 27.3632 25.1799C27.2813 25.2618 27.1703 25.3077 27.0546 25.3077H13.9637C13.848 25.3077 13.737 25.2618 13.6552 25.1799C13.5733 25.0981 13.5273 24.9871 13.5273 24.8714C13.5273 24.7557 13.5733 24.6447 13.6552 24.5629C13.737 24.481 13.848 24.4351 13.9637 24.4351H27.0546C27.1703 24.4351 27.2813 24.481 27.3632 24.5629C27.445 24.6447 27.491 24.7557 27.491 24.8714Z" fill="#666666"/>
<path d="M27.491 28.3616C27.491 28.4774 27.445 28.5883 27.3632 28.6702C27.2813 28.752 27.1703 28.798 27.0546 28.798H13.9637C13.848 28.798 13.737 28.752 13.6552 28.6702C13.5733 28.5883 13.5273 28.4774 13.5273 28.3616C13.5273 28.2459 13.5733 28.1349 13.6552 28.0531C13.737 27.9713 13.848 27.9253 13.9637 27.9253H27.0546C27.1703 27.9253 27.2813 27.9713 27.3632 28.0531C27.445 28.1349 27.491 28.2459 27.491 28.3616Z" fill="#666666"/>
<path d="M30.9815 26.1805V23.7457C30.9815 22.9014 31.3293 22.1125 31.8809 21.4737C32.5193 20.7345 32.8526 19.7253 32.6833 18.6388C32.446 17.1129 31.1687 15.8999 29.634 15.7301C29.1452 15.6742 28.65 15.7223 28.1811 15.8711C27.7121 16.0199 27.2798 16.2662 26.9127 16.5937C26.5455 16.9212 26.2517 17.3226 26.0505 17.7716C25.8493 18.2206 25.7452 18.707 25.7452 19.199C25.744 20.0413 26.0494 20.8553 26.6044 21.489C27.1546 22.1191 27.4906 22.9075 27.4906 23.7444V26.1823C27.4906 27.4294 26.6336 28.7318 25.3865 28.7489C21.8179 28.7986 20.5088 31.4167 20.5088 34.9074H37.9633C37.9633 31.4167 36.6542 28.7986 33.09 28.748C31.8412 28.7301 30.9815 27.4289 30.9815 26.1805Z" fill="#72A34F"/>
<path d="M37.0909 35.7799C37.0909 36.0114 36.999 36.2333 36.8353 36.397C36.6716 36.5607 36.4497 36.6526 36.2182 36.6526H22.2546C22.0231 36.6526 21.8011 36.5607 21.6375 36.397C21.4738 36.2333 21.3818 36.0114 21.3818 35.7799V34.9072H37.0909V35.7799Z" fill="#3E3E3F"/>
<path d="M30.9815 23.7457C30.9815 22.9014 31.3293 22.1129 31.8809 21.4737C32.5188 20.7345 32.8526 19.7257 32.6833 18.6388C32.446 17.1129 31.1687 15.8999 29.634 15.7301C29.1452 15.6742 28.65 15.7223 28.1811 15.8711C27.7121 16.0199 27.2798 16.2662 26.9127 16.5937C26.5455 16.9212 26.2517 17.3226 26.0505 17.7716C25.8493 18.2206 25.7452 18.707 25.7452 19.199C25.744 20.0413 26.0494 20.8553 26.6044 21.489C27.1546 22.1191 27.4906 22.9075 27.4906 23.7444V26.1823C27.4906 27.4294 26.6336 28.7318 25.3865 28.7493C21.8179 28.7986 20.5088 31.4167 20.5088 34.9074H22.7722L31.023 26.657C30.9957 26.4997 30.9818 26.3403 30.9815 26.1805V23.7457Z" fill="#81B55C"/>
</svg>
